# xmcd
#
# Track frame offsets:
#	150
#	17950
#	34342
#	65035
#
# Disc length: 1211 seconds
#
# Revision: 1
# Processed by: cddbd v1.5.2PL0 Copyright (c) Steve Scherf et al.
# Submitted via: audiograbber 1.83.01
#
DISCID=3504b904
DTITLE=E-Type - This Is The Way/Calling Your Name [CDM-Promo)
DYEAR=1999
DGENRE=Dance
TTITLE0=This Is The Way
TTITLE1=Calling Your Name
TTITLE2=This Is The Way (Waterdreamix)
TTITLE3=Calling Your Name (Antiloop Garage Club Mix)
EXTD=TR.
EXTT0=
EXTT1=
EXTT2=
EXTT3=
PLAYORDER=
